<svg width="40" height="40" viewBox="0 0 40 40" fill="none" xmlns="http://www.w3.org/2000/svg">
<g clip-path="url(#clip0_1_12)">
<path fill-rule="evenodd" clip-rule="evenodd" d="M26.0557 11.6853C24.4112 10.5865 23.4778 10.7308 21.5 10.7308C19 10.2308 18.5 7.125 20.5 4.62498C22 2.74995 28.5 -2.625 32 1.5C35.5 5.625 36 9 36.5 11C37 13 37.5 16 36 19C33.5 23 28.8528 22.7587 26.0557 25.5557C23.2587 28.3528 28.2814 38.844 24.4018 39.6157C20.5222 40.3874 16.5008 39.9913 12.8463 38.4776C9.19181 36.9638 6.06823 34.4004 3.87061 31.1114C1.67298 27.8224 0.500005 22.5 4 21L5.00001 20.5C5.00001 20.5 7.50001 19.5 8.50001 19.5C10 19.5 10 20 10 20C11.5 23.5 10 25.7225 10 27.7308C10 29.5 11.5 31.1114 15 31.1114C17.5 31.1114 18 29.7308 18 28.2308C18 26.7308 16 22.7308 20.5 20C22.8466 18.576 28.8239 18.0263 28 14.7308C27.5 12.7308 26.8721 12.2308 26.0557 11.6853Z" fill="white"/>
<circle cx="14.5" cy="13.5" r="3.5" fill="white"/>
</g>
<defs>
<clipPath id="clip0_1_12">
<rect width="40" height="40" fill="white"/>
</clipPath>
</defs>
</svg>
